<?xml version="1.0" encoding="utf-8"?>
<!-- Generator: Adobe Illustrator 23.0.5, SVG Export Plug-In . SVG Version: 6.00 Build 0)  -->
<svg version="1.1" id="Layer_1" xmlns="http://www.w3.org/2000/svg" xmlns:xlink="http://www.w3.org/1999/xlink" x="0px" y="0px"
	 viewBox="0 0 15 15" style="enable-background:new 0 0 15 15;" xml:space="preserve">
<style type="text/css">
	.st0{fill-rule:evenodd;clip-rule:evenodd;fill:#1977CC;}
	.st1{fill-rule:evenodd;clip-rule:evenodd;fill:#24292F;}
</style>
<path class="st0" d="M9.7,14.5h2.7c1.1,0,2-0.9,2-2v-10c0-1.1-0.9-2-2-2h-10c-1.1,0-2,0.9-2,2v10c0,1.1,0.9,2,2,2h2.8h0.1h0.1
	c0.3,0,0.3-0.2,0.3-0.4s0-0.7,0-1.3C3.8,13.3,3.4,12,3.4,12c-0.3-0.8-0.8-1-0.8-1c-0.6-0.4,0-0.4,0-0.4c0.7,0,1.1,0.7,1.1,0.7
	c0.6,1.1,1.6,0.8,2,0.6c0.1-0.5,0.2-0.8,0.4-0.9C4.7,10.7,3,10.1,3,7.4C3,6.6,3.3,6,3.8,5.5c-0.1-0.2-0.4-0.9,0-1.8
	c0,0,0.6-0.2,1.9,0.7c0.6-0.2,1.2-0.2,1.8-0.2s1.2,0.1,1.8,0.2c1.3-0.9,1.9-0.7,1.9-0.7c0.4,1,0.1,1.7,0.1,1.9C11.7,6,12,6.6,12,7.4
	c0,2.7-1.6,3.3-3.2,3.5c0.3,0.2,0.5,0.6,0.5,1.3c0,0.9,0,1.7,0,1.9S9.4,14.5,9.7,14.5L9.7,14.5z"/>
<path class="st1" d="M0.5,7.8"/>
</svg>
