<?xml version="1.0" encoding="utf-8"?>
<!-- Generator: Adobe Illustrator 23.0.5, SVG Export Plug-In . SVG Version: 6.00 Build 0)  -->
<svg version="1.1" id="Layer_1" xmlns="http://www.w3.org/2000/svg" xmlns:xlink="http://www.w3.org/1999/xlink" x="0px" y="0px"
	 viewBox="0 0 15 15" style="enable-background:new 0 0 15 15;" xml:space="preserve">
<style type="text/css">
	.st0{fill:#1977CC;}
</style>
<path class="st0" d="M12.5,0.5h-10c-1.1,0-2,0.9-2,2v10c0,1.1,0.9,2,2,2h10c1.1,0,2-0.9,2-2v-10C14.5,1.4,13.6,0.5,12.5,0.5z
	 M4.8,12.2h-2V5.8h2V12.2z M3.8,4.8c-0.6,0-1-0.5-1-1s0.4-1,1-1s1,0.5,1,1C4.8,4.4,4.5,4.8,3.8,4.8z M12.2,12.2h-2c0,0,0-3.1,0-3.3
	c0-0.7-0.3-1.3-1.2-1.3c-0.8,0-1.1,0.7-1.1,1.3c0,0.3,0,3.3,0,3.3h-2V5.8h2v0.9c0,0,0.6-0.9,1.9-0.9s2.4,0.9,2.4,2.8
	C12.2,8.6,12.2,12.2,12.2,12.2z"/>
</svg>
