<?xml version="1.0" encoding="utf-8"?>
<!-- Generator: Adobe Illustrator 23.0.5, SVG Export Plug-In . SVG Version: 6.00 Build 0)  -->
<svg version="1.1" id="Layer_1" xmlns="http://www.w3.org/2000/svg" xmlns:xlink="http://www.w3.org/1999/xlink" x="0px" y="0px"
	 viewBox="0 0 15 15" style="enable-background:new 0 0 15 15;" xml:space="preserve">
<style type="text/css">
	.st0{fill:#1977CC;}
</style>
<path class="st0" d="M12.5,0.5h-10c-1.1,0-2,0.9-2,2v10c0,1.1,0.9,2,2,2h10c1.1,0,2-0.9,2-2v-10C14.5,1.4,13.6,0.5,12.5,0.5z
	 M6.4,2.1c0.6,0,1,0.5,1,1s-0.5,1-1,1s-1-0.5-1-1S5.8,2.1,6.4,2.1z M9.6,4.1v0.4v0.7v0.4v0.7c0,0-1.6,0.6-2.8,1.3
	c1.2,1.2,2.8,2.5,2.8,2.5v0.7v2v0.1C6.1,9.9,5.5,9.2,5.4,9V8.9V8.3V8.2V7.8V7.1V6.7V6c0.3-1,3.8-2.4,4.2-2.6V4.1z"/>
</svg>
