<?xml version="1.0" encoding="utf-8"?>
<!-- Generator: Adobe Illustrator 23.0.5, SVG Export Plug-In . SVG Version: 6.00 Build 0)  -->
<svg version="1.1" id="Layer_1" xmlns="http://www.w3.org/2000/svg" xmlns:xlink="http://www.w3.org/1999/xlink" x="0px" y="0px"
	 viewBox="0 0 200 200" style="enable-background:new 0 0 200 200;" xml:space="preserve">
<style type="text/css">
	.st0{fill:#00005B;}
	.st1{fill:#9999FF;}
</style>
<g>
	<path class="st0" d="M163.5,196.4h-127C16.9,196.4,1,180.5,1,160.9V39.1C1,19.5,16.9,3.6,36.5,3.6h127c19.6,0,35.5,15.9,35.5,35.5
		v121.8C199,180.5,183.1,196.4,163.5,196.4z"/>
	<g>
		<path class="st1" d="M66.1,55.1c3.2,0,6.4,0,9.7,0c1.5,0,1.5,0,2,1.4c9.8,27.3,19.5,54.6,29.3,81.9c0.1,0.2,0.2,0.4,0.2,0.6
			c0.2,0.8-0.1,1.1-0.9,1.2c-2,0-3.9,0-5.9,0c-3.5,0-6.9,0-10.4,0c-1.5,0-1.6-0.1-2.1-1.4c-2-6-4.1-12-6.1-17.9
			c-0.2-0.7-0.6-1-1.4-1c-9.4,0-18.9,0-28.3,0c-0.8,0-1.1,0.2-1.3,0.9c-1.9,5.9-3.8,11.8-5.7,17.7c-0.5,1.5-0.7,1.7-2.3,1.7
			c-4.6,0-9.2,0-13.8,0c-1.9,0-2.1-0.3-1.5-2c6.1-17.5,12.2-35,18.4-52.5c2.7-7.8,5.5-15.6,8.1-23.4c0.6-1.8,0.6-3.8,0.8-5.6
			c0.1-1.3,0.1-1.4,1.4-1.4C59.4,55.1,62.8,55.1,66.1,55.1z M56,103.6c6.8,0,13.6,0,20.5,0c-3.5-11.3-7-22.5-10.4-33.4
			C62.8,81.1,59.4,92.3,56,103.6z"/>
		<path class="st1" d="M166.2,110c0.8,0,3.5,0,3.5,0s0-6.8-0.1-9c-0.2-3.8-0.8-7.6-2-11.1c-1.9-5.5-5.5-10.3-10.6-13.2
			c-2.7-1.6-5.8-2.6-8.9-3.2c-11.1-2-23.3,0.7-30.2,10c-5.6,7.5-7.2,17.3-7.2,26.4c0,0,0.1,27.9,29.7,30.1c0,0,13,1,23.6-3.6v-14.1
			c0,0-33,10-35.1-12.4c5.1,0,10.1,0,15.2,0.1C151.4,110,158.8,110,166.2,110z M141,85.9c6.7,0,12.1,5.4,12.1,12.1h-24.2
			C128.9,91.3,134.3,85.9,141,85.9z"/>
	</g>
</g>
</svg>
