<?xml version="1.0" encoding="utf-8"?>
<!-- Generator: Adobe Illustrator 23.0.5, SVG Export Plug-In . SVG Version: 6.00 Build 0)  -->
<svg version="1.1" id="Layer_1" xmlns="http://www.w3.org/2000/svg" xmlns:xlink="http://www.w3.org/1999/xlink" x="0px" y="0px"
	 viewBox="0 0 200 200" style="enable-background:new 0 0 200 200;" xml:space="preserve">
<style type="text/css">
	.st0{fill:url(#SVGID_1_);}
	.st1{fill-rule:evenodd;clip-rule:evenodd;fill:#FFFFFF;}
</style>
<g>
	
		<linearGradient id="SVGID_1_" gradientUnits="userSpaceOnUse" x1="20.7796" y1="163.9217" x2="193.6429" y2="26.6365" gradientTransform="matrix(1 0 0 -1 0 201)">
		<stop  offset="0" style="stop-color:#9013FE"/>
		<stop  offset="1" style="stop-color:#6610F2"/>
	</linearGradient>
	<path class="st0" d="M22.8,41.7c-0.4-10.7,8-20.6,19.3-20.6h115.8c11.3,0,19.7,9.9,19.3,20.6c-0.4,10.3,0.1,23.7,3.5,34.5
		C184,87.2,189.7,94.1,199,95V105c-9.3,0.9-15,7.8-18.4,18.7c-3.4,10.9-3.8,24.2-3.5,34.5c0.4,10.7-8,20.6-19.3,20.6H42.1
		c-11.3,0-19.7-9.9-19.3-20.6c0.4-10.3-0.1-23.7-3.5-34.5C16,112.8,10.3,105.9,1,105V95c9.3-0.9,15-7.8,18.4-18.7
		C22.7,65.4,23.2,52,22.8,41.7z"/>
	<path class="st1" d="M133.6,118.2c0,14.8-11,23.7-29.3,23.7H69.8V58h34.3c15.3,0,25.3,8.3,25.3,20.9c0,8.9-6.7,16.9-15.3,18.3v0.5
		C125.7,99,133.6,107,133.6,118.2L133.6,118.2z M83.1,131.3v-27.6h17.6c12.6,0,19.2,4.7,19.2,13.7s-6.4,13.9-18.4,13.9H83.1z
		 M83.1,68.7h17.8c9.7,0,15.1,4.3,15.1,12.1c0,8.3-6.4,13-17.9,13h-15V68.7z"/>
</g>
</svg>
