<?xml version="1.0" encoding="utf-8"?>
<!-- Generator: Adobe Illustrator 23.0.5, SVG Export Plug-In . SVG Version: 6.00 Build 0)  -->
<svg version="1.1" id="Layer_1" xmlns="http://www.w3.org/2000/svg" xmlns:xlink="http://www.w3.org/1999/xlink" x="0px" y="0px"
	 viewBox="0 0 200 200" style="enable-background:new 0 0 200 200;" xml:space="preserve">
<style type="text/css">
	.st0{fill-rule:evenodd;clip-rule:evenodd;fill:#E44D26;}
	.st1{fill-rule:evenodd;clip-rule:evenodd;fill:#F16529;}
	.st2{fill-rule:evenodd;clip-rule:evenodd;fill:#EBEBEB;}
	.st3{fill-rule:evenodd;clip-rule:evenodd;fill:#FFFFFF;}
</style>
<g>
	<polygon class="st0" points="187.3,1 171.4,179.2 99.9,199 28.6,179.2 12.7,1 	"/>
	<polygon class="st1" points="100,183.9 157.8,167.8 171.4,15.6 100,15.6 	"/>
	<path class="st2" d="M69.1,59.3H100V37.4H45.2l0.5,5.9l5.4,60.2H100V81.7H71.1L69.1,59.3L69.1,59.3L69.1,59.3z M74,114.5H52.1
		l3.1,34.3l44.8,12.4l0.1,0v-22.7l-0.1,0l-24.3-6.6L74,114.5L74,114.5L74,114.5z"/>
	<path class="st3" d="M99.9,103.5h26.9l-2.5,28.3l-24.4,6.6v22.7l44.8-12.4l0.3-3.7l5.1-57.5l0.5-5.9H99.9V103.5L99.9,103.5z
		 M99.9,59.2L99.9,59.2l52.8,0l0.4-4.9l1-11.1l0.5-5.9H99.9V59.2L99.9,59.2L99.9,59.2z"/>
</g>
</svg>
