<?xml version="1.0" encoding="utf-8"?>
<!-- Generator: Adobe Illustrator 23.0.5, SVG Export Plug-In . SVG Version: 6.00 Build 0)  -->
<svg version="1.1" id="Layer_1" xmlns="http://www.w3.org/2000/svg" xmlns:xlink="http://www.w3.org/1999/xlink" x="0px" y="0px"
	 viewBox="0 0 200 200" style="enable-background:new 0 0 200 200;" xml:space="preserve">
<style type="text/css">
	.st0{fill:#2D0402;}
	.st1{fill:#FF9A00;}
</style>
<g>
	<path class="st0" d="M163.4,196.7H36.6C16.9,196.7,1,180.8,1,161.2V38.8C1,19.2,16.9,3.3,36.6,3.3h126.9
		c19.6,0,35.6,15.9,35.6,35.6v122.3C199,180.8,183.1,196.7,163.4,196.7z"/>
	<g>
		<rect x="136.2" y="80.7" class="st1" width="18.1" height="66.2"/>
		<circle class="st1" cx="145.3" cy="63.5" r="10.4"/>
		<g>
			<path class="st1" d="M97,59.7H73.6l0,0c0,3.9-0.7,7.8-2,11.5l-27.3,75.7h19.1l6.9-20.9l30.6-0.2l7,21.1h20.2L97,59.7z M75.3,109
				l10-33.9L95.7,109H75.3z"/>
		</g>
	</g>
</g>
</svg>
