<?xml version="1.0" encoding="utf-8"?>
<!-- Generator: Adobe Illustrator 23.0.5, SVG Export Plug-In . SVG Version: 6.00 Build 0)  -->
<svg version="1.1" id="Layer_1" xmlns="http://www.w3.org/2000/svg" xmlns:xlink="http://www.w3.org/1999/xlink" x="0px" y="0px"
	 viewBox="0 0 200 200" style="enable-background:new 0 0 200 200;" xml:space="preserve">
<style type="text/css">
	.st0{fill:#43091F;}
	.st1{fill:#E94869;}
</style>
<g>
	<path class="st0" d="M163.4,196.7H36.6C16.9,196.7,1,180.8,1,161.2V38.8C1,19.2,16.9,3.3,36.6,3.3h126.9
		c19.6,0,35.6,15.9,35.6,35.6v122.3C199,180.8,183.1,196.7,163.4,196.7z"/>
	<g>
		<rect x="53.4" y="60.1" class="st1" width="18.9" height="87.7"/>
		<g>
			<path class="st1" d="M127.7,52.2v26.9h-11.6c-16.2,0-29.4,13.2-29.4,29.4v9.9c0,16.2,13.2,29.4,29.4,29.4h11.6
				c0,0,18.7-1.4,18.9-7.1v-8.5V94.7V79.1V52.2H127.7z M127.7,132.2h-7.1c-8.9,0-16-7.2-16-16v-5.4c0-8.9,7.2-16,16-16h7.1V132.2z"
				/>
		</g>
	</g>
</g>
</svg>
