<?xml version="1.0" encoding="utf-8"?>
<!-- Generator: Adobe Illustrator 23.0.5, SVG Export Plug-In . SVG Version: 6.00 Build 0)  -->
<svg version="1.1" id="Layer_1" xmlns="http://www.w3.org/2000/svg" xmlns:xlink="http://www.w3.org/1999/xlink" x="0px" y="0px"
	 viewBox="0 0 200 200" style="enable-background:new 0 0 200 200;" xml:space="preserve">
<style type="text/css">
	.st0{fill:#011D33;}
	.st1{fill:#00A6F4;}
</style>
<g>
	<path class="st0" d="M178.5,196.7H21.5c-11.3,0-20.5-9.2-20.5-20.5V23.8C1,12.5,10.2,3.3,21.5,3.3h156.9c11.3,0,20.5,9.2,20.5,20.5
		v152.4C199,187.5,189.8,196.7,178.5,196.7z"/>
	<g>
		<polygon class="st1" points="65,125.2 65,55.7 45.9,55.7 45.9,125.2 45.9,144.3 65,144.3 104.6,144.3 104.6,125.2 		"/>
		<path class="st1" d="M154.1,76.4v18.7c-1.8-0.5-3.8-0.7-5.7-0.7c-6.3,0-12,2.3-16.4,6.2v43.8h-19.5V77.1H132v8.6
			c4.5-5.8,11.6-9.5,19.5-9.5C152.4,76.3,153.2,76.3,154.1,76.4z"/>
	</g>
</g>
</svg>
