<?xml version="1.0" encoding="utf-8"?>
<!-- Generator: Adobe Illustrator 23.0.5, SVG Export Plug-In . SVG Version: 6.00 Build 0)  -->
<svg version="1.1" id="Layer_1" xmlns="http://www.w3.org/2000/svg" xmlns:xlink="http://www.w3.org/1999/xlink" x="0px" y="0px"
	 viewBox="0 0 200 200" style="enable-background:new 0 0 200 200;" xml:space="preserve">
<g>
	<path d="M93.5,1.1c-0.4,0-1.8,0.2-3,0.3C62.4,3.9,36.1,19,19.4,42.4C10.1,55.3,4.1,70,1.9,85.6C1.1,91,1,92.6,1,100
		c0,7.4,0.1,9,0.9,14.4c5.4,37.2,31.8,68.4,67.7,80c6.4,2.1,13.2,3.5,20.9,4.3c3,0.3,16,0.3,19,0c13.3-1.5,24.6-4.8,35.7-10.4
		c1.7-0.9,2-1.1,1.8-1.3c-0.2-0.1-7.4-9.9-16.1-21.6L115,144l-19.8-29.4c-10.9-16.1-19.9-29.3-20-29.3c-0.1,0-0.2,13-0.2,29
		c-0.1,27.9-0.1,29-0.4,29.7c-0.5,0.9-0.9,1.3-1.7,1.8c-0.6,0.3-1.2,0.4-4.1,0.4h-3.3l-0.9-0.6c-0.6-0.4-1-0.9-1.3-1.4l-0.4-0.9
		l0-38.8l0.1-38.8l0.6-0.8c0.3-0.4,1-0.9,1.4-1.2c0.8-0.4,1.1-0.4,4.5-0.4c3.9,0,4.6,0.2,5.6,1.3c0.3,0.3,11,16.5,23.9,36
		s30.4,46.1,39.1,59.2l15.7,23.7l0.8-0.5c7-4.6,14.5-11.1,20.3-17.8c12.5-14.4,20.6-31.9,23.3-50.6c0.8-5.4,0.9-7,0.9-14.4
		c0-7.4-0.1-9-0.9-14.4c-5.4-37.2-31.8-68.4-67.7-80c-6.3-2.1-13.1-3.5-20.6-4.3C107.9,1.1,95.1,0.9,93.5,1.1L93.5,1.1z M134,60.9
		c0.9,0.5,1.7,1.4,2,2.3c0.2,0.5,0.2,11.3,0.2,35.5l-0.1,34.8l-6.1-9.4l-6.2-9.4V89.4c0-16.4,0.1-25.5,0.2-26c0.3-1.1,1-1.9,1.9-2.4
		c0.8-0.4,1.1-0.4,4.1-0.4C132.9,60.5,133.4,60.6,134,60.9z"/>
</g>
</svg>
