<?xml version="1.0" encoding="utf-8"?>
<!-- Generator: Adobe Illustrator 23.0.5, SVG Export Plug-In . SVG Version: 6.00 Build 0)  -->
<svg version="1.1" id="Layer_1" xmlns="http://www.w3.org/2000/svg" xmlns:xlink="http://www.w3.org/1999/xlink" x="0px" y="0px"
	 viewBox="0 0 200 200" style="enable-background:new 0 0 200 200;" xml:space="preserve">
<style type="text/css">
	.st0{fill:#001E36;}
	.st1{fill:#30A8FF;}
</style>
<g>
	<path class="st0" d="M163.4,196.7H36.6C16.9,196.7,1,180.8,1,161.2V38.8C1,19.2,16.9,3.3,36.6,3.3h126.9
		c19.6,0,35.6,15.9,35.6,35.6v122.3C199,180.8,183.1,196.7,163.4,196.7z"/>
	<g>
		<path class="st1" d="M78.7,52.8H46.4v86h18.1V112h14.2c8.2,0,15.6-3.3,20.9-8.7c5.3-5.4,8.7-12.7,8.7-20.9
			C108.2,66.1,95,52.8,78.7,52.8z M86.2,92.3c-2.5,2.5-6,4.1-9.9,4.1H64.5V68.5h11.9c7.7,0,13.9,6.2,13.9,13.9
			C90.3,86.3,88.8,89.7,86.2,92.3z"/>
	</g>
	<path class="st1" d="M164.8,119.6c0,5.7-2.7,11.2-6.9,15c-4.7,4.3-11.3,6.1-17.6,6.6c-0.7,0.1-1.5,0.1-2.2,0.1
		c-6.9,0.1-14.2-1.3-20.6-4.3c-0.1,0-0.1-0.1-0.2-0.1c0-5.1,0-10.1,0-15.2c0,0.3,5,1.5,5.6,1.7c5.7,1.9,12.6,3.3,18.6,2.5
		c1.3-0.2,2.6-0.5,3.6-1.3c3.7-3.1-0.1-6.9-3.1-8.4c-3.3-1.6-6.8-2.6-10.2-4.1c-3.2-1.4-6.2-3.1-8.8-5.5c-8.4-7.8-8.1-21,0.5-28.6
		c4.8-4.3,11.4-5.7,17.7-5.9c6.5-0.3,13.1,0.9,19.2,3.4c0.2,0.1,0.5,0.2,0.6,0.4c0.1,0.2,0.1,0.4,0.1,0.6c0,5.2,0,10.3,0,15.5
		c-1-0.8-2.3-1.2-3.5-1.7c-1.3-0.6-2.6-1-3.9-1.5c-4.7-1.5-10.7-2.9-15.5-1.2c-1.8,0.6-3.1,1.9-3.1,3.8c0,3,3,4.5,5.4,5.6
		c3,1.4,6.2,2.2,9.2,3.6C157.6,104.2,164.8,110.3,164.8,119.6z"/>
</g>
</svg>
