<?xml version="1.0" encoding="utf-8"?>
<!-- Generator: Adobe Illustrator 23.0.5, SVG Export Plug-In . SVG Version: 6.00 Build 0)  -->
<svg version="1.1" id="Layer_1" xmlns="http://www.w3.org/2000/svg" xmlns:xlink="http://www.w3.org/1999/xlink" x="0px" y="0px"
	 viewBox="0 0 200 200" style="enable-background:new 0 0 200 200;" xml:space="preserve">
<style type="text/css">
	.st0{fill:#00005C;}
	.st1{fill:#9A99FF;}
</style>
<g>
	<path class="st0" d="M163.4,196.7H36.6C16.9,196.7,1,180.8,1,161.2V38.8C1,19.2,16.9,3.3,36.6,3.3h126.9
		c19.6,0,35.6,15.9,35.6,35.6v122.3C199,180.8,183.1,196.7,163.4,196.7z"/>
	<g>
		<g>
			<path class="st1" d="M75.4,57H43.1v86h18.1v-26.9h14.2c8.2,0,15.6-3.3,20.9-8.7c5.3-5.4,8.7-12.7,8.7-20.9
				C104.9,70.2,91.7,57,75.4,57z M83,96.4c-2.5,2.5-6,4.1-9.9,4.1H61.2V72.6h11.9c7.7,0,13.9,6.2,13.9,13.9
				C87,90.4,85.5,93.9,83,96.4z"/>
		</g>
		<path class="st1" d="M133.9,85.6v-8.4h-17.3V143h17.3v-37.4c0-3.1,1.5-6.1,4.1-7.9c7-4.8,18.9-4.1,18.9-4.1V75.4
			C141.9,75.4,133.9,85.6,133.9,85.6z"/>
	</g>
</g>
</svg>
