<?xml version="1.0" encoding="utf-8"?>
<!-- Generator: Adobe Illustrator 23.0.5, SVG Export Plug-In . SVG Version: 6.00 Build 0)  -->
<svg version="1.1" id="Layer_1" xmlns="http://www.w3.org/2000/svg" xmlns:xlink="http://www.w3.org/1999/xlink" x="0px" y="0px"
	 viewBox="0 0 200 200" style="enable-background:new 0 0 200 200;" xml:space="preserve">
<style type="text/css">
	.st0{fill-rule:evenodd;clip-rule:evenodd;fill:#00D8FF;}
</style>
<g>
	<path class="st0" d="M199,100c0-13.1-16.4-25.5-41.6-33.3c5.8-25.7,3.2-46.1-8.2-52.6c-2.6-1.5-5.7-2.3-9-2.3v9
		c1.9,0,3.4,0.4,4.6,1c5.5,3.1,7.9,15.1,6,30.6c-0.5,3.8-1.2,7.8-2.1,11.9c-7.9-1.9-16.5-3.4-25.6-4.4c-5.4-7.5-11.1-14.2-16.8-20.2
		c13.1-12.2,25.5-18.9,33.9-18.9v-9l0,0c-11.1,0-25.6,7.9-40.3,21.6C85.2,19.8,70.7,12,59.6,12v9c8.3,0,20.7,6.7,33.9,18.8
		C87.9,45.7,82.2,52.5,76.8,60c-9.1,1-17.8,2.5-25.7,4.4c-0.9-4-1.6-7.9-2.1-11.7c-1.9-15.4,0.5-27.4,5.9-30.6c1.2-0.7,2.8-1,4.6-1
		v-9l0,0c-3.4,0-6.5,0.7-9.1,2.3c-11.3,6.5-13.9,26.9-8,52.5C17.3,74.5,1,86.9,1,100c0,13.1,16.4,25.5,41.6,33.3
		c-5.8,25.7-3.2,46.1,8.2,52.6c2.6,1.5,5.7,2.3,9.1,2.3c11.1,0,25.6-7.9,40.3-21.6c14.7,13.6,29.2,21.5,40.3,21.5
		c3.4,0,6.5-0.7,9.1-2.3c11.3-6.5,13.9-26.9,8-52.5C182.7,125.5,199,113.1,199,100L199,100z M118.4,100c0-10.2-8.3-18.4-18.4-18.4
		c-10.2,0-18.4,8.2-18.4,18.4s8.3,18.4,18.4,18.4C110.2,118.5,118.4,110.2,118.4,100L118.4,100z M59.6,12L59.6,12L59.6,12L59.6,12z
		 M146.5,73.1c-1.5,5.2-3.4,10.6-5.4,15.9c-1.7-3.2-3.4-6.5-5.3-9.7c-1.9-3.2-3.8-6.4-5.8-9.4C135.6,70.8,141.2,71.8,146.5,73.1
		L146.5,73.1z M128,116.1c-3.1,5.4-6.4,10.6-9.7,15.4c-6,0.5-12.1,0.8-18.2,0.8c-6.1,0-12.2-0.3-18.2-0.8c-3.4-4.8-6.6-9.9-9.8-15.3
		c-3.1-5.3-5.8-10.7-8.4-16.1C66.2,94.7,69,89.3,72,84c3.1-5.4,6.4-10.6,9.7-15.4c6-0.5,12.1-0.8,18.2-0.8c6.1,0,12.2,0.3,18.2,0.8
		c3.4,4.8,6.6,9.9,9.8,15.3c3.1,5.3,5.8,10.7,8.4,16.1C133.8,105.4,131,110.8,128,116.1L128,116.1z M141,110.8
		c2.2,5.4,4,10.8,5.6,16.1c-5.3,1.3-10.9,2.4-16.6,3.2c2-3.1,3.9-6.3,5.8-9.6C137.6,117.3,139.3,114.1,141,110.8L141,110.8z
		 M100.1,153.9c-3.8-3.9-7.5-8.2-11.2-12.9c3.6,0.2,7.3,0.3,11.1,0.3c3.8,0,7.5-0.1,11.2-0.3C107.5,145.7,103.8,150,100.1,153.9
		L100.1,153.9z M70.1,130.1c-5.7-0.9-11.3-1.9-16.5-3.2c1.5-5.2,3.4-10.6,5.4-15.9c1.7,3.2,3.4,6.5,5.3,9.7
		C66.1,123.9,68.1,127.1,70.1,130.1L70.1,130.1z M99.9,46.1c3.8,3.9,7.5,8.2,11.2,12.9c-3.6-0.2-7.3-0.3-11.1-0.3
		c-3.8,0-7.5,0.1-11.2,0.3C92.4,54.3,96.2,50,99.9,46.1L99.9,46.1z M70,69.9c-2,3.1-3.9,6.3-5.8,9.6c-1.9,3.2-3.6,6.5-5.3,9.7
		c-2.2-5.4-4-10.8-5.6-16.1C58.7,71.8,64.2,70.8,70,69.9L70,69.9z M33.5,120.4C19.2,114.3,10,106.4,10,100s9.2-14.4,23.5-20.4
		c3.5-1.5,7.3-2.8,11.2-4.1c2.3,7.9,5.3,16.1,9.1,24.6c-3.7,8.4-6.7,16.6-9,24.5C40.8,123.3,37,121.9,33.5,120.4L33.5,120.4z
		 M55.2,178.1c-5.5-3.1-7.9-15.1-6-30.6c0.5-3.8,1.2-7.8,2.1-11.9c7.9,1.9,16.5,3.4,25.6,4.4c5.4,7.5,11.1,14.2,16.8,20.2
		c-13.2,12.2-25.5,18.9-33.9,18.9C57.9,179.2,56.4,178.8,55.2,178.1L55.2,178.1z M150.9,147.4c1.9,15.4-0.5,27.4-5.9,30.6
		c-1.2,0.7-2.8,1-4.6,1c-8.3,0-20.7-6.7-33.9-18.8c5.7-5.9,11.3-12.7,16.7-20.1c9.1-1,17.8-2.5,25.7-4.4
		C149.8,139.7,150.5,143.6,150.9,147.4L150.9,147.4z M166.5,120.4c-3.5,1.5-7.3,2.8-11.2,4.1c-2.3-7.9-5.3-16.1-9.1-24.6
		c3.7-8.4,6.7-16.6,9-24.5c4,1.3,7.8,2.6,11.3,4.1C180.8,85.7,190,93.7,190,100C190,106.4,180.8,114.4,166.5,120.4L166.5,120.4z"/>
</g>
</svg>
