<?xml version="1.0" encoding="utf-8"?>
<!-- Generator: Adobe Illustrator 23.0.5, SVG Export Plug-In . SVG Version: 6.00 Build 0)  -->
<svg version="1.1" id="Layer_1" xmlns="http://www.w3.org/2000/svg" xmlns:xlink="http://www.w3.org/1999/xlink" x="0px" y="0px"
	 viewBox="0 0 200 200" style="enable-background:new 0 0 200 200;" xml:space="preserve">
<style type="text/css">
	.st0{fill-rule:evenodd;clip-rule:evenodd;fill:#8E75FF;}
	.st1{opacity:0.405;fill-rule:evenodd;clip-rule:evenodd;fill:#8E75FF;enable-background:new    ;}
	.st2{fill-rule:evenodd;clip-rule:evenodd;fill:#2F2E8B;}
</style>
<g>
	<g transform="translate(0.000000, 20.378770)">
		<path class="st0" d="M43.7,62H15v14.4h14.2c0.5,0,0.9,0.4,0.9,0.9v14h14.6V62.9c0-0.2-0.1-0.5-0.3-0.6C44.2,62.1,44,62,43.7,62z"
			/>
		<path class="st1" d="M14.9,62v14.4H1.5c-0.2,0-0.4-0.1-0.4-0.3s0-0.4,0.1-0.5L14.9,62L14.9,62z M30.8,105
			c-0.1,0.1-0.3,0.2-0.5,0.1c-0.2-0.1-0.3-0.2-0.3-0.4V91.3h14.6L30.8,105L30.8,105L30.8,105z"/>
		<path class="st1" d="M14.9,76.5h14.6c0.3,0,0.5,0.2,0.5,0.5v14.4H15.9c-0.5,0-0.9-0.4-0.9-0.9L14.9,76.5L14.9,76.5L14.9,76.5z"/>
	</g>
	<path class="st2" d="M191.9,81.5c0.8,0.8,1.8,1.2,2.9,1.2c1.1,0,2.1-0.4,2.9-1.2c0.8-0.8,1.2-1.8,1.2-2.9c0-1.1-0.4-2.1-1.2-2.9
		c-0.8-0.8-1.8-1.3-2.9-1.2c-1.1,0-2.1,0.4-2.9,1.2c-0.8,0.8-1.2,1.8-1.2,2.9C190.7,79.7,191.1,80.7,191.9,81.5z M103.4,92
		c0,0.1-0.1,0.2-0.2,0.2h-5.7v10.7c0,0.9,0.2,1.5,0.7,2c0.5,0.4,1.1,0.6,2,0.7c0.8,0,1.8,0,2.9,0l0.2,0c0,0,0.1,0,0.1,0
		c0,0,0,0.1,0,0.1v5.7c0,0.1-0.1,0.1-0.1,0.2l-0.1,0c-4.5,0.5-7.7,0-9.5-1.3c-1.9-1.4-2.8-3.8-2.8-7.4V92.2h-4.4
		c-0.1,0-0.2-0.1-0.2-0.2V86c0-0.1,0.1-0.2,0.2-0.2h4.4v-4.3c0-0.1,0.1-0.2,0.2-0.3l6.3-2.7c0,0,0.1,0,0.1,0c0,0,0.1,0.1,0.1,0.1
		v7.1h5.7c0.1,0,0.2,0.1,0.2,0.2L103.4,92L103.4,92L103.4,92z M115.5,90.2c0.6-1.6,1.7-2.9,3.1-3.7c1.4-0.8,3-1.2,4.7-1.2
		c0.1,0,0.2,0.1,0.2,0.2v7c0,0.1,0,0.1-0.1,0.2c-0.1,0-0.1,0.1-0.2,0.1c-1.9-0.2-3.7,0.2-5.2,1.3c-1.6,1.1-2.4,2.8-2.4,5.3v12.2
		c0,0,0,0.1,0,0.1c0,0-0.1,0-0.1,0H109c-0.1,0-0.2-0.1-0.2-0.2V86c0-0.1,0.1-0.2,0.2-0.2h6.4c0.1,0,0.2,0.1,0.2,0.2L115.5,90.2
		L115.5,90.2L115.5,90.2z M147.3,85.8c0,0-0.1,0-0.1,0c0,0,0,0.1,0,0.1v2.9c-2-2.5-4.8-3.8-8.5-3.8c-3.5,0-6.5,1.3-8.9,3.9
		c-2.5,2.6-3.7,5.8-3.7,9.7c0,3.8,1.2,7,3.7,9.7c2.5,2.6,5.5,3.9,8.9,3.9c3.6,0,6.5-1.3,8.5-3.8v2.9c0,0.1,0.1,0.2,0.2,0.2h6.4
		c0.1,0,0.2-0.1,0.2-0.2V86c0,0,0-0.1,0-0.1c0,0-0.1,0-0.1,0L147.3,85.8L147.3,85.8L147.3,85.8z M134.8,103.9c1.4,1.3,3.1,2,5.2,2
		c2.1,0,3.8-0.7,5.2-2c1.4-1.4,2.1-3.1,2.1-5.2s-0.7-3.9-2.1-5.2c-1.4-1.4-3.1-2-5.2-2c-2.1,0-3.8,0.7-5.2,2c-1.4,1.4-2,3.1-2,5.2
		S133.4,102.6,134.8,103.9L134.8,103.9z M183.8,89c-2.5-2.6-5.5-3.9-9-3.9c-3.6,0-6.5,1.3-8.4,3.8V86c0-0.1-0.1-0.2-0.2-0.2h-6.4
		c-0.1,0-0.2,0.1-0.2,0.2v35.8c0,0.1,0.1,0.2,0.2,0.2h6.4c0.1,0,0.2-0.1,0.2-0.2v-13.2c2,2.5,4.8,3.8,8.4,3.8c3.5,0,6.5-1.3,9-3.9
		c2.5-2.6,3.7-5.8,3.7-9.7C187.5,94.9,186.3,91.6,183.8,89z M168.4,103.9c1.4,1.3,3.1,2,5.2,2c2.1,0,3.8-0.7,5.2-2
		c1.4-1.4,2.1-3.1,2.1-5.2s-0.7-3.9-2.1-5.2c-1.4-1.4-3.1-2-5.2-2c-2.1,0-3.8,0.7-5.2,2c-1.4,1.4-2,3.1-2,5.2S167,102.6,168.4,103.9
		L168.4,103.9z M191.7,111.6c-0.1,0-0.2-0.1-0.2-0.2V86c0-0.1,0.1-0.2,0.2-0.2h6.4c0.1,0,0.2,0.1,0.2,0.2v25.5
		c0,0.1-0.1,0.2-0.2,0.2L191.7,111.6L191.7,111.6L191.7,111.6z M71.8,94.8c-0.9-0.4-1.4-1-1.4-1.7c0-0.7,0.3-1.2,0.9-1.5
		c0.6-0.4,1.3-0.6,2.2-0.6c1.7,0,2.9,0.6,3.8,1.9c0.1,0.1,0.2,0.1,0.3,0.1l5.7-2.5c0,0,0.1-0.1,0.1-0.1c0,0,0-0.1,0-0.1
		c-0.1-0.1-0.1-0.2-0.2-0.3c-1-1.5-2.2-2.6-3.8-3.5c-1.7-0.9-3.7-1.4-5.8-1.4c-2.8,0-5.2,0.7-7.1,2.2c-1.9,1.5-2.8,3.5-2.8,6
		c0,1.7,0.5,3.1,1.4,4.2c0.9,1.1,2,1.9,3.4,2.4c1.3,0.5,2.6,0.9,4,1.3c1.3,0.3,2.4,0.7,3.4,1.2c0.9,0.4,1.4,1,1.4,1.7
		c0,1.5-1.2,2.2-3.6,2.2c-2.3,0-3.9-0.8-4.7-2.5c-0.1-0.1-0.2-0.2-0.4-0.1l-5.7,2.5c0,0-0.1,0-0.1,0.1c0,0,0,0.1,0,0.1l0.1,0.1
		c2,3.9,5.6,5.9,10.8,5.9c3,0,5.5-0.7,7.5-2.1c2-1.4,3-3.5,3-6.1c0-1.8-0.5-3.2-1.4-4.4c-0.9-1.1-2-2-3.4-2.5
		c-1.3-0.5-2.6-0.9-4-1.2C73.9,95.6,72.7,95.2,71.8,94.8L71.8,94.8L71.8,94.8z"/>
</g>
</svg>
