<?xml version="1.0" encoding="utf-8"?>
<!-- Generator: Adobe Illustrator 23.0.5, SVG Export Plug-In . SVG Version: 6.00 Build 0)  -->
<svg version="1.1" id="Layer_1" xmlns="http://www.w3.org/2000/svg" xmlns:xlink="http://www.w3.org/1999/xlink" x="0px" y="0px"
	 viewBox="0 0 200 200" style="enable-background:new 0 0 200 200;" xml:space="preserve">
<style type="text/css">
	.st0{fill-rule:evenodd;clip-rule:evenodd;fill:#8E75FF;}
	.st1{opacity:0.405;fill-rule:evenodd;clip-rule:evenodd;fill:#8E75FF;enable-background:new    ;}
	.st2{fill-rule:evenodd;clip-rule:evenodd;fill:#2F2E8B;}
</style>
<g>
	<g transform="translate(0.000000, 20.378770)">
		<path class="st0" d="M194.5-18.3H64.1v65.4h64.5c2.3,0,4.1,1.8,4.1,4.1v63.6H199v-129c0-0.9-0.5-2.3-1.4-2.7
			C196.7-17.9,195.8-18.3,194.5-18.3z"/>
		<path class="st1" d="M63.7-18.3v65.4H2.8c-0.9,0-1.8-0.5-1.8-1.4c0-0.9,0-1.8,0.5-2.3L63.7-18.3L63.7-18.3z M135.9,176.9
			c-0.5,0.5-1.4,0.9-2.3,0.5c-0.9-0.5-1.4-0.9-1.4-1.8v-60.9h66.3L135.9,176.9L135.9,176.9L135.9,176.9z"/>
		<path class="st1" d="M63.7,47.5H130c1.4,0,2.3,0.9,2.3,2.3v65.4h-64c-2.3,0-4.1-1.8-4.1-4.1L63.7,47.5L63.7,47.5L63.7,47.5z"/>
	</g>
	<path class="st2" d="M337.6,81.5c0.8,0.8,1.8,1.2,2.9,1.2s2.1-0.4,2.9-1.2c0.8-0.8,1.2-1.8,1.2-2.9s-0.4-2.1-1.2-2.9
		c-0.8-0.8-1.8-1.3-2.9-1.2c-1.1,0-2.1,0.4-2.9,1.2c-0.8,0.8-1.2,1.8-1.2,2.9S336.8,80.7,337.6,81.5z M249.1,92
		c0,0.1-0.1,0.2-0.2,0.2h-5.7v10.7c0,0.9,0.2,1.5,0.7,2c0.5,0.4,1.1,0.6,2,0.7c0.8,0,1.8,0,2.9,0h0.2h0.1v0.1v5.7
		c0,0.1-0.1,0.1-0.1,0.2h-0.1c-4.5,0.5-7.7,0-9.5-1.3c-1.9-1.4-2.8-3.8-2.8-7.4V92.2h-4.4c-0.1,0-0.2-0.1-0.2-0.2v-6
		c0-0.1,0.1-0.2,0.2-0.2h4.4v-4.3c0-0.1,0.1-0.2,0.2-0.3l6.3-2.7h0.1l0.1,0.1v7.1h5.7c0.1,0,0.2,0.1,0.2,0.2L249.1,92L249.1,92
		L249.1,92z M261.2,90.2c0.6-1.6,1.7-2.9,3.1-3.7c1.4-0.8,3-1.2,4.7-1.2c0.1,0,0.2,0.1,0.2,0.2v7c0,0.1,0,0.1-0.1,0.2
		c-0.1,0-0.1,0.1-0.2,0.1c-1.9-0.2-3.7,0.2-5.2,1.3c-1.6,1.1-2.4,2.8-2.4,5.3v12.2v0.1h-0.1h-6.5c-0.1,0-0.2-0.1-0.2-0.2V86
		c0-0.1,0.1-0.2,0.2-0.2h6.4c0.1,0,0.2,0.1,0.2,0.2L261.2,90.2L261.2,90.2L261.2,90.2z M293,85.8h-0.1v0.1v2.9
		c-2-2.5-4.8-3.8-8.5-3.8c-3.5,0-6.5,1.3-8.9,3.9c-2.5,2.6-3.7,5.8-3.7,9.7c0,3.8,1.2,7,3.7,9.7c2.5,2.6,5.5,3.9,8.9,3.9
		c3.6,0,6.5-1.3,8.5-3.8v2.9c0,0.1,0.1,0.2,0.2,0.2h6.4c0.1,0,0.2-0.1,0.2-0.2V86v-0.1h-0.1L293,85.8L293,85.8L293,85.8z
		 M280.5,103.9c1.4,1.3,3.1,2,5.2,2s3.8-0.7,5.2-2c1.4-1.4,2.1-3.1,2.1-5.2s-0.7-3.9-2.1-5.2c-1.4-1.4-3.1-2-5.2-2
		c-2.1,0-3.8,0.7-5.2,2c-1.4,1.4-2,3.1-2,5.2S279.1,102.6,280.5,103.9L280.5,103.9z M329.5,89c-2.5-2.6-5.5-3.9-9-3.9
		c-3.6,0-6.5,1.3-8.4,3.8V86c0-0.1-0.1-0.2-0.2-0.2h-6.4c-0.1,0-0.2,0.1-0.2,0.2v35.8c0,0.1,0.1,0.2,0.2,0.2h6.4
		c0.1,0,0.2-0.1,0.2-0.2v-13.2c2,2.5,4.8,3.8,8.4,3.8c3.5,0,6.5-1.3,9-3.9s3.7-5.8,3.7-9.7C333.2,94.9,332,91.6,329.5,89z
		 M314.1,103.9c1.4,1.3,3.1,2,5.2,2c2.1,0,3.8-0.7,5.2-2c1.4-1.4,2.1-3.1,2.1-5.2s-0.7-3.9-2.1-5.2c-1.4-1.4-3.1-2-5.2-2
		s-3.8,0.7-5.2,2c-1.4,1.4-2,3.1-2,5.2S312.7,102.6,314.1,103.9L314.1,103.9z M337.4,111.6c-0.1,0-0.2-0.1-0.2-0.2V86
		c0-0.1,0.1-0.2,0.2-0.2h6.4c0.1,0,0.2,0.1,0.2,0.2v25.5c0,0.1-0.1,0.2-0.2,0.2L337.4,111.6L337.4,111.6L337.4,111.6z M217.5,94.8
		c-0.9-0.4-1.4-1-1.4-1.7s0.3-1.2,0.9-1.5c0.6-0.4,1.3-0.6,2.2-0.6c1.7,0,2.9,0.6,3.8,1.9c0.1,0.1,0.2,0.1,0.3,0.1l5.7-2.5l0.1-0.1
		v-0.1c-0.1-0.1-0.1-0.2-0.2-0.3c-1-1.5-2.2-2.6-3.8-3.5c-1.7-0.9-3.7-1.4-5.8-1.4c-2.8,0-5.2,0.7-7.1,2.2c-1.9,1.5-2.8,3.5-2.8,6
		c0,1.7,0.5,3.1,1.4,4.2c0.9,1.1,2,1.9,3.4,2.4c1.3,0.5,2.6,0.9,4,1.3c1.3,0.3,2.4,0.7,3.4,1.2c0.9,0.4,1.4,1,1.4,1.7
		c0,1.5-1.2,2.2-3.6,2.2c-2.3,0-3.9-0.8-4.7-2.5c-0.1-0.1-0.2-0.2-0.4-0.1l-5.7,2.5c0,0-0.1,0-0.1,0.1v0.1l0.1,0.1
		c2,3.9,5.6,5.9,10.8,5.9c3,0,5.5-0.7,7.5-2.1s3-3.5,3-6.1c0-1.8-0.5-3.2-1.4-4.4c-0.9-1.1-2-2-3.4-2.5c-1.3-0.5-2.6-0.9-4-1.2
		C219.6,95.6,218.4,95.2,217.5,94.8L217.5,94.8L217.5,94.8z"/>
</g>
</svg>
