<?xml version="1.0" encoding="utf-8"?>
<!-- Generator: Adobe Illustrator 23.0.5, SVG Export Plug-In . SVG Version: 6.00 Build 0)  -->
<svg version="1.1" id="Layer_1" xmlns="http://www.w3.org/2000/svg" xmlns:xlink="http://www.w3.org/1999/xlink" x="0px" y="0px"
	 viewBox="0 0 200 200" style="enable-background:new 0 0 200 200;" xml:space="preserve">
<style type="text/css">
	.st0{fill:#646FDE;}
</style>
<g>
	<path class="st0" d="M94.4,77.2h13.8v47.9H94.4V77.2z M35.9,111.2c0-16.5-21-13.6-21-19.8l0,0c0-2.2,1.8-3,4.7-3
		c4.8,0.1,9.5,1.3,13.7,3.6V78.8c-4.3-1.7-9-2.6-13.6-2.5C8.4,76.3,1,82.2,1,92c0,15.4,20.9,12.9,20.9,19.5c0,2.6-2.2,3.4-5.3,3.4
		c-4.5,0-10.4-1.9-15-4.4V123c4.7,2.1,9.8,3.1,15,3.2C28,126.1,35.9,121.2,35.9,111.2z M94.3,73l13.8-3V58.8l-13.8,3V73z
		 M136.9,76.3c-4,0-7.9,1.5-10.8,4.3l-0.7-3.4h-12.1v64l13.7-2.9l0-15.7c2,1.5,4.9,3.5,9.7,3.5c9.8,0,18.8-7.3,18.8-24.9
		C155.6,85.1,146.5,76.3,136.9,76.3z M133.6,114.6c-3.2,0-5.1-1.2-6.5-2.6L127,91.3c1.4-1.6,3.4-2.8,6.6-2.8c5,0,8.5,5.7,8.5,12.9
		C142.1,109,138.7,114.6,133.6,114.6z M179.1,76.3c-13.1,0-21,11.2-21,25.4c0,16.7,9.4,24.5,22.7,24.5c6.6,0,11.5-1.5,15.2-3.6
		v-10.4c-3.7,1.9-8,3.1-13.5,3.1c-5.4,0-10.1-1.9-10.7-8.4h26.9c0.1-0.7,0.2-3.6,0.2-5h0C199,87.5,192.2,76.3,179.1,76.3z
		 M171.8,96.5c0-6.3,3.8-8.9,7.2-8.9c3.4,0,7,2.6,7,8.9H171.8z M62.5,89.1V77.2H52.1l0-12l-13.4,2.9l-0.1,44.5
		c0,8.2,6.1,13.5,14.3,13.5c4.5,0,7.8-0.8,9.7-1.8v-10.6c-1.8,0.7-10.4,3.3-10.4-4.9V89.1L62.5,89.1L62.5,89.1z M91.1,90V77.3
		c-1.9-0.7-8.3-1.9-11.5,4.1l-0.8-4.1H66.9v47.9h13.7V92.9C83.8,88.6,89.3,89.4,91.1,90z"/>
</g>
</svg>
