<?xml version="1.0" encoding="utf-8"?>
<!-- Generator: Adobe Illustrator 23.0.5, SVG Export Plug-In . SVG Version: 6.00 Build 0)  -->
<svg version="1.1" id="Layer_1" xmlns="http://www.w3.org/2000/svg" xmlns:xlink="http://www.w3.org/1999/xlink" x="0px" y="0px"
	 viewBox="0 0 200 200" style="enable-background:new 0 0 200 200;" xml:space="preserve">
<style type="text/css">
	.st0{fill-rule:evenodd;clip-rule:evenodd;fill:#06B6D4;}
</style>
<g>
	<path class="st0" d="M100,41c-26.4,0-42.9,13.1-49.5,39.4c9.9-13.1,21.5-18,34.6-14.8c7.5,1.9,12.9,7.3,18.9,13.3
		c9.7,9.8,20.9,21.1,45.5,21.1c26.4,0,42.9-13.1,49.5-39.4c-9.9,13.1-21.4,18-34.6,14.8c-7.5-1.9-12.9-7.3-18.9-13.3
		C135.8,52.2,124.5,41,100,41z M50.5,100C24.1,100,7.6,113.1,1,139.4c9.9-13.1,21.5-18,34.6-14.8c7.5,1.9,12.9,7.3,18.9,13.3
		c9.7,9.8,20.9,21.1,45.5,21.1c26.4,0,42.9-13.1,49.5-39.4c-9.9,13.1-21.4,18-34.6,14.7c-7.5-1.9-12.9-7.3-18.9-13.3
		C86.3,111.3,75,100,50.5,100L50.5,100z"/>
</g>
</svg>
