<?xml version="1.0" encoding="utf-8"?>
<!-- Generator: Adobe Illustrator 23.0.5, SVG Export Plug-In . SVG Version: 6.00 Build 0)  -->
<svg version="1.1" id="Layer_1" xmlns="http://www.w3.org/2000/svg" xmlns:xlink="http://www.w3.org/1999/xlink" x="0px" y="0px"
	 viewBox="0 0 200 200" style="enable-background:new 0 0 200 200;" xml:space="preserve">
<style type="text/css">
	.st0{fill-rule:evenodd;clip-rule:evenodd;fill:#007ACC;}
	.st1{fill-rule:evenodd;clip-rule:evenodd;fill:#FFFFFF;}
</style>
<g>
	<path class="st0" d="M1,100V1h198v198H1V100L1,100z M1,100L1,100L1,100L1,100z"/>
	<path class="st1" d="M44.4,100.3v8.1h25.7v73.3h18.3v-73.3h25.7v-7.9c0-4.4,0-8.1-0.2-8.2c0-0.1-15.7-0.2-34.8-0.2l-34.6,0.1v8.1
		L44.4,100.3L44.4,100.3L44.4,100.3z M160.1,92.1c5,1.2,8.9,3.5,12.4,7.1c1.8,2,4.6,5.4,4.8,6.3c0,0.3-8.6,6.1-13.8,9.3
		c-0.2,0.1-1-0.7-1.8-2c-2.6-3.7-5.2-5.3-9.3-5.5c-5.9-0.4-9.9,2.7-9.9,7.9c0,1.6,0.3,2.5,0.9,3.8c1.3,2.7,3.8,4.4,11.5,7.7
		c14.2,6.1,20.3,10.1,24,15.8c4.2,6.4,5.1,16.5,2.3,24.1c-3.2,8.3-10.9,13.9-21.9,15.7c-3.5,0.6-11.4,0.5-15.1-0.1
		c-7.9-1.5-15.5-5.4-20.1-10.5c-1.8-2-5.3-7.3-5.1-7.6l1.9-1.2l7.4-4.3l5.6-3.3l1.3,1.7c1.6,2.6,5.3,6,7.4,7.2
		c6.4,3.3,15,2.9,19.3-1c1.8-1.7,2.6-3.5,2.6-5.9c0-2.3-0.4-3.3-1.5-5c-1.6-2.2-4.8-4-13.7-7.9c-10.2-4.4-14.6-7.1-18.7-11.4
		c-2.3-2.6-4.4-6.6-5.4-9.9c-0.7-2.9-1-9.9-0.3-12.7c2.1-9.9,9.6-16.8,20.3-18.8c3.5-0.7,11.6-0.4,15,0.5L160.1,92.1L160.1,92.1
		L160.1,92.1z"/>
</g>
</svg>
