<?xml version="1.0" encoding="utf-8"?>
<!-- Generator: Adobe Illustrator 23.0.5, SVG Export Plug-In . SVG Version: 6.00 Build 0)  -->
<svg version="1.1" id="Layer_1" xmlns="http://www.w3.org/2000/svg" xmlns:xlink="http://www.w3.org/1999/xlink" x="0px" y="0px"
	 viewBox="0 0 200 200" style="enable-background:new 0 0 200 200;" xml:space="preserve">
<style type="text/css">
	.st0{fill-rule:evenodd;clip-rule:evenodd;fill:#0F8CC3;}
</style>
<path class="st0" d="M174.4,59.3c0.4,2.7,0.6,5.6,0.6,8.7c0,8.6-1.6,18.3-6.5,30.4l-25.9,74.9c25.2-14.7,42.2-42,42.2-73.3
	C184.8,85.3,181.1,71.4,174.4,59.3L174.4,59.3z M101.5,107.4l-25.5,74c7.6,2.2,15.6,3.5,24,3.5c9.9,0,19.4-1.7,28.2-4.8
	c-0.2-0.4-0.4-0.7-0.6-1.2L101.5,107.4L101.5,107.4z M157.3,95.7c0,7.3-1.1,12.2-4.8,24l-10.1,31.7l-30.7-91.2
	c5.1-0.3,9.7-0.8,9.7-0.8c4.6-0.5,4-8.4-0.5-8.1c0,0-13.7,1.1-22.6,1.1c-8.3,0-22.3-1.1-22.3-1.1c-4.6-0.3-5.1,7.8-0.5,8.1
	c0,0,4.3,0.5,8.9,0.8l13,35.6l-0.3,1.1l-18.4,54.1L48,60.2c5.1-0.3,9.7-0.8,9.7-0.8c4.6-0.5,4-8.4-0.5-8.1c0,0-13.7,1.1-22.6,1.1
	c-1.6,0-3.5,0-5.5-0.1c14-23.2,41.2-37.1,70.9-37.1c22.1,0,42.2,8.4,57.3,22.3c-8.7-0.5-15.3,6.4-15.3,15c0,7,4,12.9,8.3,19.9
	C153.5,78,157.3,85.3,157.3,95.7L157.3,95.7z M15.2,100c0,33.6,19.5,62.6,47.8,76.3L22.5,65.5C17.8,76,15.2,87.7,15.2,100L15.2,100z
	 M100,8.1c50.8,0,91.9,41.2,91.9,91.9s-41.2,91.9-91.9,91.9S8.1,150.8,8.1,100S49.2,8.1,100,8.1L100,8.1z M100,1
	c54.7,0,99,44.3,99,99s-44.3,99-99,99S1,154.7,1,100S45.3,1,100,1z"/>
</svg>
