<?xml version="1.0" encoding="utf-8"?>
<!-- Generator: Adobe Illustrator 23.0.5, SVG Export Plug-In . SVG Version: 6.00 Build 0)  -->
<svg version="1.1" id="Layer_1" xmlns="http://www.w3.org/2000/svg" xmlns:xlink="http://www.w3.org/1999/xlink" x="0px" y="0px"
	 viewBox="0 0 200 200" style="enable-background:new 0 0 200 200;" xml:space="preserve">
<style type="text/css">
	.st0{fill:#480036;}
	.st1{fill:#FF40F0;}
</style>
<g id="Xd">
	<path class="st0" d="M161.5,199h-123C17.8,199,1,182.2,1,161.5v-123C1,17.8,17.8,1,38.5,1h123C182.2,1,199,17.8,199,38.5v123
		C199,182.2,182.2,199,161.5,199z"/>
	<g>
		<path class="st1" d="M76.5,97.4l24.8,40.3c0.5,0.6,0.1,1.1-0.5,1.2H85.7c-1,0-1.5-0.2-1.8-1c-5.9-10.1-11.9-20.3-18-30.9h-0.1
			c-5.5,10.3-11.3,20.8-17.1,30.9c-0.4,0.7-0.7,1-1.5,1H32.8c-0.9,0-0.9-0.7-0.5-1.2l24.1-39.4L32.8,59.3c-0.4-0.6,0-1.1,0.6-1.1h15
			c0.7,0,1.1,0.1,1.5,0.9C55.4,69.2,61.5,79.3,67,89.5h0.1C72.6,79.3,78.4,69.2,84,59.2c0.2-0.6,0.6-1,1.5-1h13.8
			c0.7,0,0.9,0.5,0.5,1.2L76.5,97.4z"/>
		<path class="st1" d="M103.7,109.2c0-17.8,13.3-32.1,34.9-32.1c1.7,0,3.2,0.1,5.3,0.4V52.3c0-0.6,0.2-0.9,0.7-0.9h13.4
			c0.6,0,0.6,0.2,0.6,0.7v74.3c0,2.5,0.2,5.7,0.5,7.9c0,0.6-0.1,0.9-0.7,1.1c-8,3.4-15.9,4.8-23.2,4.8
			C117.3,140.2,103.7,129.9,103.7,109.2z M143.9,90.4c-1.6-0.6-3.6-0.9-5.8-0.9c-10.9,0-19.2,7-19.2,18.9c0,13.4,8,18.9,17.8,18.9
			c2.5,0,4.9-0.2,7.1-1V90.4z"/>
	</g>
</g>
</svg>
